<?xml version="1.0" encoding="utf-8"?>
<!-- Generator: Adobe Illustrator 22.0.1, SVG Export Plug-In . SVG Version: 6.00 Build 0)  -->
<svg version="1.1" id="icons" xmlns="http://www.w3.org/2000/svg" xmlns:xlink="http://www.w3.org/1999/xlink" x="0px" y="0px"
	 viewBox="0 0 512 512" style="enable-background:new 0 0 512 512;" xml:space="preserve">
<style type="text/css">
	.st0{fill:#FFFFFF;}
</style>
<path class="st0" d="M80,271.9h144c4.4,0,8-3.6,8-8v-32c0-4.4-3.6-8-8-8H80c-4.4,0-8,3.6-8,8v32C72,268.4,75.6,271.9,80,271.9z
	 M88,239.9h128v16H88V239.9z"/>
<path class="st0" d="M208,287.9c-13.2,0-24,10.8-24,24s10.8,24,24,24s24-10.8,24-24S221.3,287.9,208,287.9z M208,319.9
	c-4.4,0-8-3.6-8-8s3.6-8,8-8s8,3.6,8,8S212.4,319.9,208,319.9z"/>
<path class="st0" d="M152,287.9c-13.2,0-24,10.8-24,24s10.8,24,24,24s24-10.8,24-24S165.3,287.9,152,287.9z M152,319.9
	c-4.4,0-8-3.6-8-8s3.6-8,8-8s8,3.6,8,8S156.4,319.9,152,319.9z"/>
<path class="st0" d="M96,335.9c13.2,0,24-10.8,24-24s-10.8-24-24-24s-24,10.8-24,24S82.8,335.9,96,335.9z M96,303.9c4.4,0,8,3.6,8,8
	s-3.6,8-8,8s-8-3.6-8-8S91.6,303.9,96,303.9z"/>
<path class="st0" d="M208,343.9c-13.2,0-24,10.8-24,24s10.8,24,24,24s24-10.8,24-24S221.3,343.9,208,343.9z M208,375.9
	c-4.4,0-8-3.6-8-8s3.6-8,8-8s8,3.6,8,8S212.4,375.9,208,375.9z"/>
<path class="st0" d="M152,343.9c-13.2,0-24,10.8-24,24s10.8,24,24,24s24-10.8,24-24S165.3,343.9,152,343.9z M152,375.9
	c-4.4,0-8-3.6-8-8s3.6-8,8-8s8,3.6,8,8S156.4,375.9,152,375.9z"/>
<path class="st0" d="M96,391.9c13.2,0,24-10.8,24-24s-10.8-24-24-24s-24,10.8-24,24S82.8,391.9,96,391.9z M96,359.9c4.4,0,8,3.6,8,8
	s-3.6,8-8,8s-8-3.6-8-8S91.6,359.9,96,359.9z"/>
<path class="st0" d="M208,399.9c-13.2,0-24,10.8-24,24s10.8,24,24,24s24-10.8,24-24S221.3,399.9,208,399.9z M208,431.9
	c-4.4,0-8-3.6-8-8s3.6-8,8-8s8,3.6,8,8S212.4,431.9,208,431.9z"/>
<path class="st0" d="M152,399.9c-13.2,0-24,10.8-24,24s10.8,24,24,24s24-10.8,24-24S165.3,399.9,152,399.9z M152,431.9
	c-4.4,0-8-3.6-8-8s3.6-8,8-8s8,3.6,8,8S156.4,431.9,152,431.9z"/>
<path class="st0" d="M96,447.9c13.2,0,24-10.8,24-24s-10.8-24-24-24s-24,10.8-24,24S82.8,447.9,96,447.9z M96,415.9c4.4,0,8,3.6,8,8
	s-3.6,8-8,8s-8-3.6-8-8S91.6,415.9,96,415.9z"/>
<path class="st0" d="M335.9,120.1h-0.6c-2.5-19.7-14.2-37.2-31.4-47.2v-3.4c0-0.4-0.2-0.8-0.2-1.2c-0.1-0.6-0.1-1.2-0.3-1.7
	c-0.2-0.5-0.5-0.9-0.8-1.4c-0.3-0.4-0.5-0.8-0.8-1.2c-0.4-0.5-1-0.8-1.5-1.1c-0.3-0.2-0.5-0.5-0.8-0.6c-0.1,0-0.2-0.1-0.2-0.1
	c-0.1,0-0.1,0-0.2-0.1c-17-7.9-37-8-54,0c0,0-0.1,0-0.1,0c-0.1,0-0.2,0.1-0.3,0.1c-0.4,0.2-0.6,0.5-0.9,0.7c-0.5,0.3-1,0.6-1.4,1.1
	c-0.3,0.4-0.6,0.8-0.8,1.2c-0.3,0.4-0.6,0.8-0.8,1.4c-0.2,0.5-0.2,1.1-0.3,1.7c-0.1,0.4-0.2,0.8-0.2,1.2v3.4
	c-17.2,10-28.9,27.6-31.5,47.3h-0.6c-4.4,0-8,3.6-8,8v24c0,4.4,3.6,8,8,8h128c4.4,0,8-3.6,8-8v-24
	C343.9,123.7,340.3,120.1,335.9,120.1L335.9,120.1z M239.9,92.3v3.8c0,4.4,3.6,8,8,8s8-3.6,8-8V74.8c10.3-3.6,21.7-3.6,32,0v21.2
	c0,4.4,3.6,8,8,8s8-3.6,8-8v-3.7c8,7.2,13.4,17,15.2,27.7h-94.5C226.5,109.4,231.9,99.5,239.9,92.3z M327.9,144.1h-112v-8h112V144.1
	z"/>
<path class="st0" d="M384,224h24c4.4,0,8-3.6,8-8s-3.6-8-8-8h-24c-4.4,0-8,3.6-8,8S379.6,224,384,224z"/>
<path class="st0" d="M408,248h-32c-4.4,0-8,3.6-8,8c0,4.4,3.6,8,8,8h32c4.4,0,8-3.6,8-8S412.4,248,408,248z"/>
<path class="st0" d="M408,288h-24c-4.4,0-8,3.6-8,8s3.6,8,8,8h24c4.4,0,8-3.6,8-8S412.4,288,408,288z"/>
<path class="st0" d="M408,328h-16c-4.4,0-8,3.6-8,8s3.6,8,8,8h16c4.4,0,8-3.6,8-8S412.4,328,408,328z"/>
<path class="st0" d="M408,368h-24c-4.4,0-8,3.6-8,8s3.6,8,8,8h24c4.4,0,8-3.6,8-8S412.4,368,408,368z"/>
<path class="st0" d="M408,408h-32c-4.4,0-8,3.6-8,8s3.6,8,8,8h32c4.4,0,8-3.6,8-8S412.4,408,408,408z"/>
<path class="st0" d="M472,64c0-1-0.2-2-0.6-3c-0.4-1-1-1.9-1.7-2.6l-56-56c-0.7-0.7-1.6-1.3-2.6-1.7c-1-0.4-2-0.6-3.1-0.6H152
	c-4.4,0-8,3.6-8,8v183.9H64c-13.2,0-24,10.8-24,24v32v208v32c0,13.2,10.8,24,24,24h176c13.2,0,24-10.8,24-24v-8h200c4.4,0,8-3.6,8-8
	L472,64C472,64.1,472,64.1,472,64L472,64C472,64.1,472,64,472,64L472,64z M416,27.4l28.7,28.7H416V27.4z M56,215.9c0-4.4,3.6-8,8-8
	h176c4.4,0,8,3.6,8,8v32v208c0,4.4-3.6,8-8,8H64c-4.4,0-8-3.6-8-8v-208V215.9z M240,495.9H64c-4.4,0-8-3.6-8-8v-9.5
	c2.5,0.9,5.2,1.5,8,1.5h176c2.8,0,5.5-0.6,8-1.5v9.5C248,492.4,244.4,495.9,240,495.9z M264,455.9V424H336c4.4,0,8-3.6,8-8
	s-3.6-8-8-8H264v-24H336c4.4,0,8-3.6,8-8s-3.6-8-8-8H264v-24H336c4.4,0,8-3.6,8-8s-3.6-8-8-8H264v-24H336c4.4,0,8-3.6,8-8
	s-3.6-8-8-8H264v-24H336c4.4,0,8-3.6,8-8s-3.6-8-8-8H264v-0.1V224H336c4.4,0,8-3.6,8-8s-3.6-8-8-8h-73.4
	c-3.3-9.4-12.1-16.1-22.6-16.1h-80V16.1h240v48c0,4.4,3.6,8,8,8h48v391.8H264L264,455.9z"/>
</svg>
