<?xml version="1.0" encoding="utf-8"?>
<!-- Generator: Adobe Illustrator 22.0.1, SVG Export Plug-In . SVG Version: 6.00 Build 0)  -->
<svg version="1.1" id="Слой_1" xmlns="http://www.w3.org/2000/svg" xmlns:xlink="http://www.w3.org/1999/xlink" x="0px" y="0px"
	 viewBox="0 0 480 480" style="enable-background:new 0 0 480 480;" xml:space="preserve">
<style type="text/css">
	.st0{fill:#FFFFFF;}
</style>
<path class="st0" d="M472,296h-40V170.3l19.7,12.4c1.3,0.8,2.8,1.2,4.3,1.2c0.6,0,1.2-0.1,1.8-0.2c2.1-0.5,3.9-1.8,5-3.6l14.9-24
	c2.3-3.7,1.2-8.7-2.6-11L244.2,1.2c-2.6-1.6-5.9-1.6-8.5,0l-231,144c-3.7,2.3-4.9,7.3-2.6,11l14.9,24c1.1,1.8,2.9,3.1,5,3.6
	c2.1,0.5,4.2,0.1,6.1-1L48,170.3V472c0,4.4,3.6,8,8,8h368c4.4,0,8-3.6,8-8v-16h40c4.4,0,8-3.6,8-8V304C480,299.6,476.4,296,472,296z
	 M26.5,164.9L20,154.5L240,17.4l219.9,137.1l-6.5,10.4L244.2,33.2c-2.6-1.6-5.9-1.6-8.5,0L26.5,164.9z M64,160.3L240,49.5l176,110.8
	v135.2l-32.5-2.1c-3.9-0.2-7.8-1.1-11.5-2.5l-31.1-11.6c-8.4-3.1-14.3-10.6-15.4-19.5l-4.1-32.9c-1-7.2-1-14.6,0-21.8l4.5-36.1
	c0.1-0.9,0.2-1.9,0.2-2.9c0-12.2-9.9-22.1-22.1-22.1c-30.9,0-56,25.1-56,56v72h-56v-24c0-4.4-3.6-8-8-8H88c-4.4,0-8,3.6-8,8v216H64
	V160.3z M143.7,324.6c-9.7,5.7-15.7,16.1-15.7,27.4c0,11.3,6,21.7,15.7,27.4c-6.9,8-9.4,18.8-6.6,29c2.8,10.2,10.4,18.3,20.4,21.7
	c-6.9,10.1-7.3,23.4-1,33.9H96V256h80v16h-8c-12.5-0.1-23.8,7.2-29.1,18.5C133.7,301.8,135.5,315.1,143.7,324.6z M406.8,464l9.1-3.9
	v3.9H406.8z M464,440h-40c-1.1,0-2.1,0.2-3.1,0.6l-44.3,18.9c-6.9,3-14.4,4.5-22,4.5H184c-8.8,0-16-7.2-16-16s7.2-16,16-16h64
	c4.4,0,8-3.6,8-8s-3.6-8-8-8h-80c-8.8,0-16-7.2-16-16s7.2-16,16-16h80c4.4,0,8-3.6,8-8s-3.6-8-8-8h-88c-8.8,0-16-7.2-16-16
	s7.2-16,16-16h88c4.4,0,8-3.6,8-8s-3.6-8-8-8h-80c-8.8,0-16-7.2-16-16s7.2-16,16-16h88c4.4,0,8-3.6,8-8v-80c0-22.1,17.9-40,40-40
	c1.7,0,3.4,0.8,4.5,2.1c1.2,1.3,1.7,3,1.5,4.8l-4.5,36.2c-1.1,8.6-1.1,17.3,0,25.9l4.1,32.9c1.8,14.8,11.7,27.4,25.7,32.5l31,11.6
	c5.2,1.9,10.6,3.1,16.1,3.5L424,312h40V440z"/>
</svg>
