<?xml version="1.0" encoding="utf-8"?>
<!-- Generator: Adobe Illustrator 22.0.1, SVG Export Plug-In . SVG Version: 6.00 Build 0)  -->
<svg version="1.1" id="Слой_1" xmlns="http://www.w3.org/2000/svg" xmlns:xlink="http://www.w3.org/1999/xlink" x="0px" y="0px"
	 viewBox="0 0 512 512" style="enable-background:new 0 0 512 512;" xml:space="preserve">
<style type="text/css">
	.st0{fill:#FFFFFF;}
</style>
<g id="Outline">
	<path class="st0" d="M472,48h-24v-8c0-13.3-10.7-24-24-24s-24,10.7-24,24v8h-64v-8c0-13.3-10.7-24-24-24s-24,10.7-24,24v8h-64v-8
		c0-13.3-10.7-24-24-24s-24,10.7-24,24v8h-64v-8c0-13.3-10.7-24-24-24S64,26.7,64,40v8H40c-13.2,0-24,10.8-24,24v400
		c0,13.2,10.8,24,24,24h432c13.2,0,24-10.8,24-24V72C496,58.8,485.2,48,472,48z M416,40c0-4.4,3.6-8,8-8s8,3.6,8,8v32
		c0,4.4-3.6,8-8,8s-8-3.6-8-8V40z M304,40c0-4.4,3.6-8,8-8s8,3.6,8,8v32c0,4.4-3.6,8-8,8s-8-3.6-8-8V40z M192,40c0-4.4,3.6-8,8-8
		s8,3.6,8,8v32c0,4.4-3.6,8-8,8s-8-3.6-8-8V40z M80,40c0-4.4,3.6-8,8-8s8,3.6,8,8v32c0,4.4-3.6,8-8,8s-8-3.6-8-8V40z M480,472
		c0,4.4-3.6,8-8,8H40c-4.4,0-8-3.6-8-8V144h448V472z M480,128H32V72c0-4.4,3.6-8,8-8h24v8c0,13.3,10.7,24,24,24s24-10.7,24-24v-8h64
		v8c0,13.3,10.7,24,24,24s24-10.7,24-24v-8h64v8c0,13.3,10.7,24,24,24s24-10.7,24-24v-8h64v8c0,13.3,10.7,24,24,24s24-10.7,24-24v-8
		h24c4.4,0,8,3.6,8,8V128z"/>
	<path class="st0" d="M253.4,455.6c1.7,0.6,3.5,0.6,5.2,0c32-10.9,59.8-31.6,79.5-59.1c19.5-27.3,30-60,29.9-93.5v-94.8
		c0-4.4-3.6-8-8-8c-32.5,0-65.4-10-97.6-29.7l-2.3-1.4c-2.6-1.6-5.8-1.6-8.3,0l-2.3,1.4c-32.2,19.7-65,29.7-97.6,29.7
		c-4.4,0-8,3.6-8,8V303c-0.1,33.5,10.4,66.2,29.9,93.5C193.6,424,221.4,444.7,253.4,455.6z M160,216c32.2-1.5,64.5-11.8,96-30.7
		c31.5,18.9,63.8,29.2,96,30.7v87c0.1,30.2-9.3,59.6-26.9,84.2c-17.2,24-41.3,42.3-69.1,52.3c-27.8-10-51.9-28.3-69.1-52.3
		c-17.6-24.5-27-54-26.9-84.2V216z"/>
	<path class="st0" d="M232,360c2.1,0,4.2-0.8,5.7-2.3l88-88l-11.3-11.3L232,340.7l-34.3-34.3l-11.3,11.3l40,40
		C227.8,359.2,229.9,360,232,360z"/>
</g>
</svg>
