<?xml version="1.0" encoding="utf-8"?>
<!-- Generator: Adobe Illustrator 22.0.1, SVG Export Plug-In . SVG Version: 6.00 Build 0)  -->
<svg version="1.1" id="Capa_1" xmlns="http://www.w3.org/2000/svg" xmlns:xlink="http://www.w3.org/1999/xlink" x="0px" y="0px"
	 viewBox="0 0 97.8 97.8" style="enable-background:new 0 0 97.8 97.8;" xml:space="preserve">
<style type="text/css">
	.st0{fill:#C34721;}
</style>
<g>
	<g>
		<path class="st0" d="M48.9,40.5c4.7,0,8.4-3.8,8.4-8.4c0-4.7-3.7-8.4-8.4-8.4c-4.7,0-8.5,3.8-8.4,8.5
			C40.5,36.8,44.2,40.5,48.9,40.5z"/>
		<path class="st0" d="M48.9,0C21.9,0,0,21.9,0,48.9s21.9,48.9,48.9,48.9s48.9-21.9,48.9-48.9S75.9,0,48.9,0z M48.9,14.9
			c9.5,0,17.2,7.8,17.1,17.4c0,9.4-7.8,17-17.3,17c-9.4,0-17.1-7.8-17.1-17.3C31.7,22.5,39.4,14.8,48.9,14.9z M68.2,56.1
			c-2.1,2.2-4.6,3.7-7.5,4.8c-2.7,1-5.6,1.5-8.5,1.9c0.4,0.5,0.6,0.7,0.9,1c3.9,3.9,7.9,7.9,11.8,11.8c1.3,1.3,1.6,3,0.9,4.6
			c-0.8,1.7-2.6,2.8-4.4,2.7c-1.1-0.1-2-0.6-2.8-1.4c-3-3-6-5.9-8.9-8.9c-0.8-0.9-1.2-0.7-2,0.1c-3,3.1-6,6.1-9,9.1
			c-1.4,1.3-3,1.6-4.6,0.8c-1.7-0.8-2.8-2.5-2.7-4.3c0.1-1.2,0.6-2.1,1.4-2.9c3.9-3.9,7.7-7.8,11.6-11.6c0.3-0.3,0.5-0.5,0.9-0.9
			c-5.3-0.6-10-1.8-14.1-5c-0.5-0.4-1-0.8-1.5-1.2c-1.8-1.7-2-3.7-0.6-5.7c1.2-1.7,3.2-2.2,5.3-1.2c0.4,0.2,0.8,0.4,1.2,0.7
			c7.6,5.2,18,5.4,25.6,0.2c0.8-0.6,1.6-1,2.5-1.3c1.8-0.5,3.5,0.2,4.5,1.8C69.6,52.9,69.6,54.6,68.2,56.1z"/>
	</g>
</g>
</svg>
