<?xml version="1.0" encoding="utf-8"?>
<!-- Generator: Adobe Illustrator 22.0.1, SVG Export Plug-In . SVG Version: 6.00 Build 0)  -->
<svg version="1.1" id="Слой_1" xmlns="http://www.w3.org/2000/svg" xmlns:xlink="http://www.w3.org/1999/xlink" x="0px" y="0px"
	 viewBox="0 0 470 470" style="enable-background:new 0 0 470 470;" xml:space="preserve">
<style type="text/css">
	.st0{fill:#FFFFFF;}
</style>
<g>
	<path class="st0" d="M467.8,428.9L345.4,306.5c-2.9-2.9-7.7-2.9-10.6,0l-8.8,8.8l-17.8-17.8c30.2-32.8,46.8-75.2,46.8-120.1
		c0-47.4-18.5-92-52-125.5S224.9,0,177.5,0S85.5,18.5,52,52S0,130.1,0,177.5s18.5,92,52,125.5s78.1,52,125.5,52
		c44.9,0,87.3-16.6,120.1-46.8l17.8,17.8l-8.8,8.8c-2.9,2.9-2.9,7.7,0,10.6l122.4,122.4c1.5,1.5,3.4,2.2,5.3,2.2s3.8-0.7,5.3-2.2
		l28.3-28.3C470.7,436.6,470.7,431.8,467.8,428.9z M62.6,292.4C31.9,261.7,15,220.9,15,177.5S31.9,93.3,62.6,62.6S134.1,15,177.5,15
		s84.2,16.9,114.9,47.6S340,134.1,340,177.5s-16.9,84.2-47.6,114.9S220.9,340,177.5,340S93.3,323.1,62.6,292.4z M434.2,451.9
		L322.5,340.1l17.7-17.7l111.8,111.8L434.2,451.9z"/>
	<path class="st0" d="M177.5,140c-20.7,0-37.5,16.8-37.5,37.5s16.8,37.5,37.5,37.5s37.5-16.8,37.5-37.5S198.2,140,177.5,140z
		 M177.5,200c-12.4,0-22.5-10.1-22.5-22.5s10.1-22.5,22.5-22.5s22.5,10.1,22.5,22.5S189.9,200,177.5,200z"/>
	<path class="st0" d="M238.4,148.4l17.7-17.7c2.6-2.6,2.9-6.7,0.8-9.7c-6.3-8.9-14.1-16.6-23-23c-3-2.1-7.1-1.8-9.7,0.8l-17.7,17.7
		c-2.2-1-4.4-1.9-6.6-2.7V88.8c0-3.7-2.6-6.8-6.3-7.4c-5.4-0.9-10.9-1.4-16.2-1.4s-10.8,0.5-16.2,1.4c-3.6,0.6-6.3,3.7-6.3,7.4v25.1
		c-2.2,0.8-4.4,1.7-6.6,2.7l-17.7-17.7c-2.6-2.6-6.7-2.9-9.7-0.8c-8.9,6.3-16.6,14.1-23,23c-2.1,3-1.8,7.1,0.8,9.7l17.7,17.7
		c-1,2.2-1.9,4.4-2.7,6.6H88.8c-3.7,0-6.8,2.6-7.4,6.3c-0.9,5.4-1.4,10.9-1.4,16.2c0,5.4,0.5,10.8,1.4,16.2c0.6,3.6,3.7,6.3,7.4,6.3
		h25.1c0.8,2.2,1.7,4.4,2.7,6.6l-17.7,17.7c-2.6,2.6-2.9,6.7-0.8,9.7c6.3,8.9,14.1,16.6,23,23c3,2.1,7.1,1.8,9.7-0.8l17.7-17.7
		c2.2,1,4.4,1.9,6.6,2.7v25.1c0,3.7,2.6,6.8,6.3,7.4c5.4,0.9,10.9,1.4,16.2,1.4s10.8-0.5,16.2-1.4c3.6-0.6,6.3-3.7,6.3-7.4v-25.1
		c2.2-0.8,4.4-1.7,6.6-2.7l17.7,17.7c2.6,2.6,6.7,2.9,9.7,0.8c8.9-6.3,16.6-14.1,23-23c2.1-3,1.8-7.1-0.8-9.7l-17.7-17.7
		c1-2.2,1.9-4.4,2.7-6.6h25.1c3.7,0,6.8-2.6,7.4-6.3c0.9-5.4,1.4-10.9,1.4-16.2s-0.5-10.8-1.4-16.2c-0.6-3.6-3.7-6.3-7.4-6.3h-25.1
		C240.4,152.8,239.4,150.6,238.4,148.4L238.4,148.4z M260,177.5c0,2.5-0.1,5-0.4,7.5h-24c-3.4,0-6.4,2.3-7.3,5.6
		c-1.2,4.7-3.1,9.3-5.6,13.5c-1.7,2.9-1.3,6.7,1.2,9.1l17,17c-3.2,3.9-6.8,7.4-10.6,10.6l-17-17c-2.4-2.4-6.2-2.9-9.1-1.2
		c-4.3,2.5-8.8,4.4-13.5,5.6c-3.3,0.9-5.6,3.8-5.6,7.3v24c-5,0.5-10,0.5-15,0v-24c0-3.4-2.3-6.4-5.6-7.3c-4.7-1.2-9.3-3.1-13.5-5.6
		c-2.9-1.7-6.7-1.3-9.1,1.2l-17,17c-3.9-3.2-7.4-6.8-10.6-10.6l17-17c2.4-2.4,2.9-6.2,1.2-9.1c-2.5-4.3-4.4-8.8-5.6-13.5
		c-0.9-3.3-3.8-5.6-7.3-5.6h-24c-0.2-2.5-0.3-5-0.3-7.5s0.1-5,0.3-7.5h24c3.4,0,6.4-2.3,7.3-5.6c1.2-4.7,3.1-9.3,5.6-13.5
		c1.7-2.9,1.3-6.7-1.2-9.1l-17-17c3.2-3.9,6.8-7.4,10.6-10.6l17,17c2.4,2.4,6.2,2.9,9.1,1.2c4.3-2.5,8.8-4.4,13.5-5.6
		c3.3-0.9,5.6-3.8,5.6-7.3v-24c5-0.5,10-0.5,15,0v24c0,3.4,2.3,6.4,5.6,7.3c4.7,1.2,9.3,3.1,13.5,5.6c2.9,1.7,6.7,1.3,9.1-1.2l17-17
		c3.9,3.2,7.4,6.8,10.6,10.6l-17,17c-2.4,2.4-2.9,6.2-1.2,9.1c2.5,4.3,4.4,8.8,5.6,13.5c0.9,3.3,3.8,5.6,7.3,5.6h24
		C259.9,172.5,260,175,260,177.5L260,177.5z"/>
	<path class="st0" d="M285.3,92.1c-2.6-3.2-7.3-3.8-10.5-1.2c-3.2,2.6-3.8,7.3-1.2,10.5c38.7,48.7,34.6,118.6-9.4,162.7
		c-47.8,47.8-125.5,47.8-173.2,0s-47.8-125.5,0-173.2c44-44,114-48.1,162.7-9.4c3.2,2.6,8,2,10.5-1.2s2-8-1.2-10.5
		C208.2,26.3,129.7,30.8,80.3,80.3c-53.6,53.6-53.6,140.8,0,194.5c26.8,26.8,62,40.2,97.2,40.2s70.4-13.4,97.2-40.2
		C324.2,225.3,328.7,146.8,285.3,92.1L285.3,92.1z"/>
</g>
</svg>
