<?xml version="1.0" encoding="utf-8"?>
<!-- Generator: Adobe Illustrator 22.0.1, SVG Export Plug-In . SVG Version: 6.00 Build 0)  -->
<svg version="1.1" id="Capa_1" xmlns="http://www.w3.org/2000/svg" xmlns:xlink="http://www.w3.org/1999/xlink" x="0px" y="0px"
	 viewBox="0 0 512 512" style="enable-background:new 0 0 512 512;" xml:space="preserve">
<style type="text/css">
	.st0{fill:#FFFFFF;}
</style>
<g>
	<g>
		<g>
			<path class="st0" d="M483.6,314.6c-3.8-1.7-8.2,0.1-9.9,3.9s0.1,8.2,3.9,9.9c11.8,5.2,19.4,16.8,19.4,29.8v31.7h-19v-13.4
				c0-4.1-3.4-7.5-7.5-7.5s-7.5,3.4-7.5,7.5v13.4h-27.8c-2.2-31-23.9-57.2-54.4-64.8l-25.5-6.3l22.4-5.6h40.4l32.7,8.1
				c4,1,8.1-1.5,9.1-5.5c1-4-1.5-8.1-5.5-9.1l-26.8-6.7v-18.8c11-7.3,19.2-18.5,22.5-31.6c0.1,0,0.3,0,0.4,0c1.9,0,3.7-0.2,5.6-0.6
				c11-2.6,18.7-12.3,18.7-23.6c0-11.2-7.6-20.9-18.4-23.5c-0.4-0.1-0.9-0.2-1.3-0.3c10.5-31,8.1-60.3,8-61.6
				c-0.3-3.9-3.6-6.8-7.5-6.8h-77.9c-11.8,0-18.6,7.4-21.5,13.4c-4.4,2.3-8,5.7-10.6,10.1c-1.2-0.2-2.4-0.3-3.6-0.3
				c4.8-12.9,8.5-26.8,11-41.5c0.7-4.1-2-8-6.1-8.7c-4.1-0.7-8,2-8.7,6.1c-2.7,15.4-6.7,29.9-11.9,43.1l-5-0.8v-14.1
				c0-3.6-2.6-6.7-6.1-7.4c-1.8-0.3-45.2-8.4-115.4-8.4c-4.1,0-7.5,3.4-7.5,7.5v22.4l-5.3,0.8c-4-17.6-12.5-66.3,13.8-75.6
				c2.3-0.8,4.1-2.7,4.7-5.1c0.4-1.3,4.2-13.1,18.1-13.1h118.5c0.2,5.8,0.2,15-0.7,26.2c-0.3,4.1,2.8,7.7,6.9,8.1
				c4.1,0.3,7.7-2.8,8.1-6.9c1.6-20.8,0.4-34.9,0.3-35.5c-0.3-3.9-3.6-6.8-7.5-6.8H223.4c-17.8,0-27.5,11.8-31.2,20.4
				c-24.4,11.2-26.6,42.6-24.2,67c-1.2-1.4-2.5-2.8-3.8-4.1c-12.8-12.8-29.8-19.9-48-19.9c-37.4,0-67.8,30.4-67.8,67.8
				c0,2.9,1.7,5.4,4.1,6.7c0.9,0.5,3.5,1.9,7.7,3.6v13.1c-1.6,0.1-3.1,0.3-4.5,0.7c-10.9,2.7-18.5,12.3-18.5,23.6
				c0,11.3,7.7,21,18.7,23.6c1.8,0.4,3.7,0.6,5.6,0.6c0.1,0,0.3,0,0.4,0c3.4,13.3,11.5,24.5,22.5,31.7V300L36,312
				c-21.2,5.3-36,24.2-36,46.1v39.2c0,4.1,3.4,7.5,7.5,7.5h69.1V458c0,4.1,3.4,7.5,7.5,7.5h84c4.1,0,7.5-3.4,7.5-7.5
				s-3.4-7.5-7.5-7.5h-21.7v-26.2c0-4.1-3.4-7.5-7.5-7.5s-7.5,3.4-7.5,7.5v26.2H91.6v-55.6c0-26.2,17.8-48.9,43.2-55.3l53.6-13.3
				l32.2,33.2c0.1,0.3,0.3,0.7,0.5,1l14.2,24.6c0.3,0.6,0.7,1.1,1.2,1.6l-9.6,63.9h-22.8c-4.1,0-7.5,3.4-7.5,7.5s3.4,7.5,7.5,7.5
				h223.7c4.1,0,7.5-3.4,7.5-7.5v-53.2h69.1c4.1,0,7.5-3.4,7.5-7.5v-39.2C512,339.3,500.8,322.2,483.6,314.6z M451.8,216.2
				c0.3,0,0.6,0.1,1,0.2c4.1,1,7,4.7,7,9c0,4.3-2.9,8-7.1,9c-0.3,0.1-0.6,0.1-0.9,0.2V216.2z M60.2,234.5c-0.3,0-0.6-0.1-0.9-0.2
				c-4.2-1-7.1-4.7-7.1-9c0-4.3,2.9-8,7.1-9c0.3-0.1,0.6-0.1,0.9-0.2C60.2,216.2,60.2,234.5,60.2,234.5z M412.6,298.1h-29.4v-10
				c4.7,1.3,9.6,2.1,14.7,2.1c5.1,0,10-0.7,14.7-2.1V298.1z M436.8,236.2c0,1.3-0.1,2.6-0.2,3.8c0,0.1,0,0.1,0,0.2
				c-2,19.6-18.6,34.9-38.7,34.9c-20.1,0-36.7-15.3-38.7-34.9c0-0.1,0-0.1,0-0.2c-0.1-1.3-0.2-2.5-0.2-3.8v-16
				c8.4-5.1,14.3-13.7,16-23.6c24.4,0.6,42.4,2.7,51.2,3.9v6.3c0,3.7,2.6,6.8,6.3,7.4l4.4,0.7L436.8,236.2L436.8,236.2z
				 M364.4,159.1c2.4-0.8,4.1-2.6,4.7-5.1c0.5-1.5,2.4-6,8.5-6h70.7c0.1,9.7-0.8,28.4-7.2,47.8v-1.7c0-3.6-2.6-6.7-6.1-7.4
				c-1-0.2-23.7-4.4-60.9-5.2c-2.2-8.1-7.3-15-14.2-19.6C361.5,160.3,363.1,159.6,364.4,159.1z M338.3,208.3v-36.9
				c2.4-0.3,4.9-0.2,7.2,0.4c-0.4-0.1-0.4-0.1,0,0c6.8,1.7,1.6,0.4,0.1,0c8.7,2.2,14.8,9.9,14.8,18.9c0,7.6-4.4,14.4-11,17.6
				c-1.4,0.4-2.6,1.1-4,1.4c-2.3,0.5-4.7,0.7-7,0.4C338.3,209.5,338.3,208.9,338.3,208.3z M336.6,225c1.4,0.2,2.8,0.3,4.3,0.3
				c1,0,2-0.1,3.1-0.1v9.4c-0.3,0-0.6-0.1-0.9-0.2c-3.6-0.8-6.2-3.7-6.9-7.2C336.3,226.4,336.4,225.7,336.6,225z M330,244.3
				c2.8,2.2,6,3.8,9.6,4.7c1.8,0.4,3.7,0.6,5.6,0.6c0.1,0,0.3,0,0.4,0c3.4,13.1,11.5,24.3,22.5,31.6V300l-44,10.9l-0.3-0.1
				l-9.4-23.5c-0.8-2-2.5-3.6-4.6-4.3c-2.1-0.7-4.4-0.5-6.3,0.7l-4.3,2.6v-8c4.3-2.7,8.4-5.7,12.1-9.2
				C319.2,262,325.5,253.6,330,244.3z M303.8,301.1l6.8,17l-31.7,32.7L265.8,324L303.8,301.1z M256,312.4l-28.3-17.1v-9.8
				c8.8,3.2,18.4,5,28.3,5c9.8,0,19.3-1.7,28.3-5v9.8L256,312.4z M188.7,170.2l12.1-1.9c3.7-0.6,6.3-3.7,6.3-7.4v-21.2
				c49.9,0.4,85.5,5.1,99,7.1v14.1c0,3.7,2.6,6.8,6.3,7.4l10.9,1.8v38.2c0,2.3-0.1,4.5-0.3,6.7c-0.3,3.3-0.9,6.4-1.6,9.5
				c-0.1,0.3-0.2,0.5-0.2,0.8c-7.5,29.3-33.9,50.3-65.1,50.3c-34.8,0-63.6-26.6-67-60.5c0,0,0-0.1,0-0.1c-0.2-2.2-0.3-4.4-0.3-6.7
				L188.7,170.2L188.7,170.2z M175.9,227.2c-0.7,3.5-3.4,6.4-6.9,7.2c-0.3,0.1-0.6,0.1-0.9,0.2v-9.4c1,0.1,2,0.1,3.1,0.1
				c1.4,0,2.9-0.1,4.3-0.3C175.5,225.7,175.7,226.4,175.9,227.2z M171.1,171.2c0.9,0,1.7,0.1,2.6,0.2v36.8c0,0.6,0,1.2,0,1.8
				c-2.4,0.3-4.8,0.2-7.1-0.3c-1.1-0.3-2.1-0.6-3.1-1c0,0-0.1,0-0.1-0.1c-7.1-3-11.8-10-11.8-17.9c0-9,6.1-16.8,14.9-18.9
				C168,171.4,169.5,171.2,171.1,171.2z M116.3,125c14.1,0,27.4,5.5,37.3,15.5c4.7,4.8,8.5,10.3,11.1,16.4c-0.6,0.1-1.3,0.2-1.9,0.4
				c-12.6,3.1-22.1,12.8-25.2,24.8c-17.6,2.9-33.4,1.9-46.1-0.5v-17.9c0-4.1-3.4-7.5-7.5-7.5s-7.5,3.4-7.5,7.5v14.2
				c-5.6-1.7-10-3.5-12.9-4.8C66,146.2,88.7,125,116.3,125z M75.4,240.1C75.4,240.1,75.4,240.1,75.4,240.1c-0.1-1.3-0.2-2.6-0.2-3.9
				v-26.5c0,0,0,0,0,0v-16.4c10.6,3,24.5,5.6,40.6,5.6c6.8,0,14-0.5,21.4-1.6c1.8,9.6,7.6,17.9,15.8,22.9v16c0,1.3-0.1,2.6-0.2,3.8
				c0,0.1,0,0.1,0,0.2c-2,19.6-18.6,34.9-38.7,34.9C94,275.1,77.4,260.1,75.4,240.1z M128.9,288.1v10H99.4v-10c4.7,1.3,9.6,2,14.7,2
				C119.3,290.1,124.2,289.4,128.9,288.1z M131.2,325c-30.5,7.6-52.3,33.8-54.4,64.8H49v-13.4c0-4.1-3.4-7.5-7.5-7.5
				s-7.5,3.4-7.5,7.5v13.4H15v-31.7c0-15,10.1-27.9,24.6-31.5l54.3-13.5h40.4l22.4,5.6L131.2,325z M197.6,287.4l-9.4,23.5l-0.3,0.1
				l-44-10.9v-18.8c11-7.3,19.2-18.5,22.5-31.6c0.1,0,0.3,0,0.4,0c1.9,0,3.7-0.2,5.6-0.6c3.6-0.8,6.8-2.5,9.6-4.7
				c6.8,14,17.5,25.8,30.7,34v8.1l-4.3-2.6c-1.9-1.1-4.2-1.4-6.3-0.7C200,283.7,198.4,285.3,197.6,287.4z M233.2,350.8l-31.7-32.7
				l6.8-17l38,22.9L233.2,350.8z M242.1,450.5l9.3-61.7h9.3l9.3,61.7H242.1z M265.9,373.8h-19.7l0,0l-4.1-7l13.9-28.5l13.9,28.5
				L265.9,373.8z M380.5,450.5v-26.2c0-4.1-3.4-7.5-7.5-7.5s-7.5,3.4-7.5,7.5v26.2h-80.4l-9.6-63.9c0.5-0.5,0.9-1,1.2-1.6l14.2-24.6
				c0.2-0.3,0.3-0.7,0.5-1l32.2-33.2l53.6,13.3c25.4,6.3,43.2,29,43.2,55.3v55.6L380.5,450.5L380.5,450.5z"/>
			<path class="st0" d="M345.5,171.8C345.5,171.8,345.5,171.8,345.5,171.8C345.5,171.8,345.6,171.8,345.5,171.8
				C345.6,171.8,345.6,171.8,345.5,171.8z"/>
		</g>
	</g>
</g>
<g>
	<g>
		<path class="st0" d="M223.7,175.5c-4.1,0-7.5,3.4-7.5,7.5v8.2c0,4.1,3.4,7.5,7.5,7.5s7.5-3.4,7.5-7.5V183
			C231.2,178.8,227.8,175.5,223.7,175.5z"/>
	</g>
</g>
<g>
	<g>
		<path class="st0" d="M291.3,175.5c-4.1,0-7.5,3.4-7.5,7.5v8.2c0,4.1,3.4,7.5,7.5,7.5s7.5-3.4,7.5-7.5V183
			C298.8,178.8,295.5,175.5,291.3,175.5z"/>
	</g>
</g>
<g>
	<g>
		<path class="st0" d="M377,209.5c-4.1,0-7.5,3.4-7.5,7.5v5.2c0,4.1,3.4,7.5,7.5,7.5s7.5-3.4,7.5-7.5V217
			C384.5,212.8,381.1,209.5,377,209.5z"/>
	</g>
</g>
<g>
	<g>
		<path class="st0" d="M418.8,209.5c-4.1,0-7.5,3.4-7.5,7.5v5.2c0,4.1,3.4,7.5,7.5,7.5s7.5-3.4,7.5-7.5V217
			C426.3,212.8,422.9,209.5,418.8,209.5z"/>
	</g>
</g>
<g>
	<g>
		<path class="st0" d="M94.4,209.5c-4.1,0-7.5,3.4-7.5,7.5v5.2c0,4.1,3.4,7.5,7.5,7.5s7.5-3.4,7.5-7.5V217
			C101.9,212.8,98.5,209.5,94.4,209.5z"/>
	</g>
</g>
<g>
	<g>
		<path class="st0" d="M136.2,209.5c-4.1,0-7.5,3.4-7.5,7.5v5.2c0,4.1,3.4,7.5,7.5,7.5s7.5-3.4,7.5-7.5V217
			C143.7,212.8,140.3,209.5,136.2,209.5z"/>
	</g>
</g>
</svg>
