<?xml version="1.0" encoding="utf-8"?>
<!-- Generator: Adobe Illustrator 22.0.1, SVG Export Plug-In . SVG Version: 6.00 Build 0)  -->
<svg version="1.1" id="Слой_1" xmlns="http://www.w3.org/2000/svg" xmlns:xlink="http://www.w3.org/1999/xlink" x="0px" y="0px"
	 viewBox="0 0 412 412" style="enable-background:new 0 0 412 412;" xml:space="preserve">
<style type="text/css">
	.st0{fill:#FFFFFF;}
</style>
<path class="st0" d="M371.8,220.4c-20.5-20.2-36.4-43.5-47.4-69.4c7.2-3.2,12.3-10.4,12.3-18.7c0-9.6-6.6-17.5-15.5-19.8l8.4-33.1
	c0.5-2,0.1-4.2-1.2-5.9c-1.3-1.7-3.3-2.6-5.4-2.6h-78.7C224.3,29,181.7,0,132.3,0C63.9,0,8.2,55.7,8.2,124.1
	c0,68.4,55.7,124.1,124.1,124.1c4.1,0,8.1-0.2,12.1-0.6c-8.2,15.1-12.5,31.6-12.5,48.4c0,64,61.2,116,136.5,116
	c75.2,0,136.5-52,136.5-116C404.9,268.2,393.1,241.4,371.8,220.4z M316.2,139.1h-60.7c0.5-4.5,0.9-9,0.9-13.6h59.8
	c3.8,0,6.8,3.1,6.8,6.8S319.9,139.1,316.2,139.1z M314.2,84.5l-6.9,27.3h-51.5c-0.9-9.5-3-18.6-6-27.3H314.2z M21.9,124.1
	c0-60.9,49.6-110.5,110.5-110.5c60.9,0,110.5,49.6,110.5,110.5c0,60.9-49.6,110.5-110.5,110.5C71.4,234.6,21.9,185,21.9,124.1z
	 M268.4,398.4c-67.7,0-122.8-45.9-122.8-102.4c0-18.2,5.9-36,16.9-51.6c44.7-11.2,79.9-46.7,90.5-91.7h57.3
	c11.8,29,29.2,55,51.9,77.4c18.7,18.4,29,41.8,29,65.9C391.2,352.4,336.1,398.4,268.4,398.4z"/>
<path class="st0" d="M132.3,34c-49.7,0-90.1,40.4-90.1,90.1c0,49.7,40.4,90.1,90.1,90.1c49.7,0,90.1-40.4,90.1-90.1
	C222.4,74.4,182,34,132.3,34z M190.4,173.7l-12.3-12.6c-2.6-2.7-6.9-2.8-9.6-0.1c-2.7,2.6-2.8,6.9-0.1,9.6l12.3,12.7
	c-11.6,9.5-26.1,15.7-41.9,17V180c0-3.8-3.1-6.8-6.8-6.8c-3.8,0-6.8,3.1-6.8,6.8v20.2c-15.7-1.5-30.1-7.7-41.6-17.3l12-12.3
	c2.6-2.7,2.6-7-0.1-9.6c-2.7-2.6-7-2.6-9.6,0.1l-11.9,12.2c-9.6-11.4-15.9-25.5-17.6-41.1h14.2c3.8,0,6.8-3.1,6.8-6.8
	c0-3.8-3.1-6.8-6.8-6.8H56.1c1.2-17,8-32.4,18.5-44.5l12.9,13.3c1.3,1.4,3.1,2.1,4.9,2.1c1.7,0,3.4-0.6,4.8-1.9
	c2.7-2.6,2.8-6.9,0.1-9.6L84.4,64.6c11.4-9.2,25.4-15.2,40.7-16.6v16c0,3.8,3.1,6.8,6.8,6.8c3.8,0,6.8-3.1,6.8-6.8V48
	c15.4,1.3,29.6,7.2,41,16.3l-13.2,13.6c-2.6,2.7-2.6,7,0.1,9.6c1.3,1.3,3,1.9,4.8,1.9c1.8,0,3.6-0.7,4.9-2.1l13.3-13.7
	c10.7,12.2,17.6,27.7,18.8,44.9h-15.2c-3.8,0-6.8,3.1-6.8,6.8s3.1,6.8,6.8,6.8h15C206.7,148,200.2,162.3,190.4,173.7z"/>
<path class="st0" d="M138.8,122.6V91.3c0-3.8-3.1-6.8-6.8-6.8c-3.8,0-6.8,3-6.8,6.8v34.1c0,1.8,0.7,3.5,2,4.8l20.5,20.5
	c1.3,1.3,3.1,2,4.8,2c1.7,0,3.5-0.7,4.8-2c2.7-2.7,2.7-7,0-9.6L138.8,122.6z"/>
<path class="st0" d="M287.2,274.6c-1.7-0.9-3.4-1.7-5.2-2.5v-36.3c0.4,0.1,0.9,0.1,1.3,0.2c2.5,0.6,4.7,1.2,6.6,1.8
	c3.6,1.1,7.4-1,8.5-4.6c1.1-3.6-1-7.4-4.6-8.5c-2.2-0.6-4.6-1.3-7.3-1.9c-1.4-0.3-3-0.5-4.5-0.8v-14.6c0-3.8-3.1-6.8-6.8-6.8
	c-3.8,0-6.8,3.1-6.8,6.8v13.1c-1.8-0.1-3.4-0.3-5.3-0.3c-0.5,0-1,0.1-1.6,0.1v-12.9c0-3.8-3.1-6.8-6.8-6.8c-3.8,0-6.8,3.1-6.8,6.8
	v14.4c-4.1,1-7.9,2.3-11.2,4.1c-3.9,2.2-7,5.1-9.3,8.6c-2.3,3.7-3.5,8-3.5,12.9c0,7,2.7,13,7.7,17.2c4.1,3.4,9.2,6.3,15.2,8.7
	c0.3,0.1,0.7,0.3,1.1,0.4v64.8c-5.5-0.2-10.8-0.7-15.6-1.5c-2.9-0.5-5.6-1.1-8-1.7c-3.7-1-7.4,1.2-8.3,4.9c-1,3.6,1.2,7.4,4.9,8.3
	c2.7,0.7,5.8,1.4,9.1,1.9c5.5,0.9,11.6,1.4,17.9,1.7v18.9c0,3.8,3.1,6.8,6.8,6.8c3.8,0,6.8-3.1,6.8-6.8v-19c2.3-0.1,4.7-0.3,6.8-0.6
	v19.5c0,3.8,3.1,6.8,6.8,6.8c3.8,0,6.8-3.1,6.8-6.8V348c4.6-1.7,8.9-3.9,12.4-6.7c9.9-7.8,14.8-18.2,14.8-30.8
	c0-9-2.2-16.6-6.6-22.5C298.6,282.5,293.4,278,287.2,274.6z M263.1,233.8c1.8,0,3.5,0.2,5.3,0.3v32.5c-2.3-0.7-4.6-1.5-6.8-2.3
	v-30.5C262.1,233.8,262.6,233.8,263.1,233.8z M240.5,254.2c-2-1.7-2.9-3.7-2.9-6.8c0-2.3,0.5-4.1,1.4-5.6c1-1.6,2.5-3,4.4-4.1
	c1.3-0.7,2.9-1.4,4.5-1.9v22.9C245.1,257.4,242.5,255.9,240.5,254.2z M261.6,338.5v-59.8c1,0.3,2,0.7,3,1c1.3,0.4,2.5,0.9,3.8,1.4
	v56.6C266.3,338,264,338.3,261.6,338.5z M286,330.6c-1.2,0.9-2.6,1.7-4,2.5v-45.6c3.8,2.4,7.1,5.1,9.7,8.6c2.6,3.6,3.9,8.2,3.9,14.4
	C295.7,318.9,292.5,325.5,286,330.6z"/>
</svg>
