<svg xmlns="http://www.w3.org/2000/svg" width="10" height="10" viewBox="0 0 10 10"><defs><mask id="isgab" width="2" height="2" x="-1" y="-1"><path fill="#fff" d="M0 0h10v10H0z"/><path d="M4.097 7.29L8.949.428h.622s-5.132 8.93-4.866 9.143C4.97 9.785.428 6.684.428 6.684l1.236-1.676z"/></mask><filter id="isgaa" width="30.5" height="30.9" x="-10" y="-10" filterUnits="userSpaceOnUse"><feOffset dx=".5" dy=".9" in="SourceGraphic" result="FeOffset1023Out"/><feGaussianBlur in="FeOffset1023Out" result="FeGaussianBlur1024Out" stdDeviation="0 0"/></filter><filter id="isgac" width="200%" height="200%" x="-50%" y="-50%"><feGaussianBlur in="SourceGraphic" result="FeGaussianBlur1030Out" stdDeviation="0 0"/></filter><mask id="isgad"><path fill="#fff" d="M4.097 7.29L8.949.428h.622s-5.132 8.93-4.866 9.143C4.97 9.785.428 6.684.428 6.684l1.236-1.676z"/></mask></defs><g><g><g filter="url(#isgaa)"><path fill="none" d="M4.097 7.29L8.949.428h.622s-5.132 8.93-4.866 9.143C4.97 9.785.428 6.684.428 6.684l1.236-1.676z" mask="url(&quot;#isgab&quot;)"/><path fill="#fff" fill-opacity=".75" d="M4.097 7.29L8.949.428h.622s-5.132 8.93-4.866 9.143C4.97 9.785.428 6.684.428 6.684l1.236-1.676z"/></g><path fill="#666" d="M4.097 7.29L8.949.428h.622s-5.132 8.93-4.866 9.143C4.97 9.785.428 6.684.428 6.684l1.236-1.676z"/><path fill="#c34721" d="M4.097 7.29L8.949.428h.622s-5.132 8.93-4.866 9.143C4.97 9.785.428 6.684.428 6.684l1.236-1.676z"/><path fill-opacity=".27" d="M-.5 10.9V-.9h11v11.8zm2.664-4.992L.928 7.584s4.543 3.1 4.277 2.887c-.266-.214 4.866-9.143 4.866-9.143h-.622L4.597 8.19z" filter="url(#isgac)" mask="url(&quot;#isgad&quot;)"/></g></g></svg>