<svg xmlns="http://www.w3.org/2000/svg" width="10" height="10" viewBox="0 0 10 10"><defs><mask id="6ktvd" width="2" height="2" x="-1" y="-1"><path fill="#fff" d="M0 0h10v10H0z"/><path d="M5 .285a4.714 4.714 0 1 1 0 9.429A4.714 4.714 0 0 1 5 .285z"/></mask><filter id="6ktvc" width="30.5" height="30.9" x="-10" y="-10" filterUnits="userSpaceOnUse"><feOffset dx=".5" dy=".9" in="SourceGraphic" result="FeOffset1348Out"/><feGaussianBlur in="FeOffset1348Out" result="FeGaussianBlur1349Out" stdDeviation="0 0"/></filter><linearGradient id="6ktve" x1="4.71" x2="5.29" y1="9.71" y2=".29" gradientUnits="userSpaceOnUse"><stop offset="0" stop-color="#fff" stop-opacity=".16"/><stop offset="1" stop-opacity=".16"/></linearGradient><filter id="6ktva" width="200%" height="200%" x="-50%" y="-50%"><feGaussianBlur in="SourceGraphic" result="FeGaussianBlur1370Out" stdDeviation="0 0"/></filter><mask id="6ktvb"><path fill="#fff" d="M5 .285a4.714 4.714 0 1 1 0 9.429A4.714 4.714 0 0 1 5 .285z"/></mask><filter id="6ktvf" width="200%" height="200%" x="-50%" y="-50%"><feGaussianBlur in="SourceGraphic" result="FeGaussianBlur1377Out" stdDeviation="0.5 0.5"/></filter><mask id="6ktvg"><path fill="#fff" d="M5 .285a4.714 4.714 0 1 1 0 9.429A4.714 4.714 0 0 1 5 .285z"/></mask></defs><g><g><path fill-opacity=".06" d="M0 10V0h10v10zm.286-5a4.714 4.714 0 1 0 9.428 0A4.714 4.714 0 0 0 .286 5z" filter="url(#6ktva)" mask="url(&quot;#6ktvb&quot;)"/><g filter="url(#6ktvc)"><path fill="none" d="M5 .285a4.714 4.714 0 1 1 0 9.429A4.714 4.714 0 0 1 5 .285z" mask="url(&quot;#6ktvd&quot;)"/><path fill="#fff" fill-opacity=".75" d="M5 .285a4.714 4.714 0 1 1 0 9.429A4.714 4.714 0 0 1 5 .285z"/></g><path fill="#c34721" d="M5 .285a4.714 4.714 0 1 1 0 9.429A4.714 4.714 0 0 1 5 .285z"/><path fill="url(#6ktve)" d="M5 .285a4.714 4.714 0 1 1 0 9.429A4.714 4.714 0 0 1 5 .285z"/><path fill-opacity=".06" d="M0 10V0h10v10zm.286-5a4.714 4.714 0 1 0 9.428 0A4.714 4.714 0 0 0 .286 5z" filter="url(#6ktva)" mask="url(&quot;#6ktvb&quot;)"/><path fill-opacity=".5" d="M-1.5 11.9V-1.9h13v13.8zm2.286-6a4.714 4.714 0 1 0 9.428 0 4.714 4.714 0 0 0-9.428 0z" filter="url(#6ktvf)" mask="url(&quot;#6ktvg&quot;)"/></g></g></svg>